<svg width="10" height="11" viewBox="0 0 10 11" fill="none" xmlns="http://www.w3.org/2000/svg">
<path d="M8.92857 0.456543H1.07143C0.479911 0.456543 0 0.936454 0 1.52797V9.38511C0 9.97663 0.479911 10.4565 1.07143 10.4565H8.92857C9.52009 10.4565 10 9.97663 10 9.38511V1.52797C10 0.936454 9.52009 0.456543 8.92857 0.456543ZM6.18973 9.02128C6.00223 9.05476 5.93304 8.93869 5.93304 8.8427C5.93304 8.72217 5.9375 8.1061 5.9375 7.60833C5.9375 7.26011 5.82143 7.03913 5.68527 6.92306C6.51116 6.83154 7.3817 6.7177 7.3817 5.29136C7.3817 4.88511 7.23661 4.68199 7 4.42083C7.03795 4.32485 7.16518 3.92976 6.96205 3.41636C6.65179 3.32038 5.94196 3.81592 5.94196 3.81592C5.64732 3.73333 5.32813 3.69092 5.01339 3.69092C4.69866 3.69092 4.37946 3.73333 4.08482 3.81592C4.08482 3.81592 3.375 3.32038 3.06473 3.41636C2.86161 3.92753 2.98661 4.32261 3.02679 4.42083C2.79018 4.68199 2.67857 4.88511 2.67857 5.29136C2.67857 6.71101 3.51116 6.83154 4.33705 6.92306C4.22991 7.01904 4.13393 7.18422 4.10045 7.42083C3.88839 7.51681 3.34598 7.68199 3.02232 7.11056C2.8192 6.75788 2.45312 6.72886 2.45312 6.72886C2.09152 6.7244 2.42857 6.95654 2.42857 6.95654C2.66964 7.06815 2.83929 7.49672 2.83929 7.49672C3.0558 8.15967 4.09152 7.93645 4.09152 7.93645C4.09152 8.24672 4.09598 8.75119 4.09598 8.8427C4.09598 8.93869 4.02902 9.05476 3.83929 9.02128C2.36607 8.52797 1.33482 7.12619 1.33482 5.48779C1.33482 3.43869 2.90179 1.88288 4.95089 1.88288C7 1.88288 8.66071 3.43869 8.66071 5.48779C8.66295 7.12619 7.66295 8.5302 6.18973 9.02128ZM4 7.65744C3.95759 7.66636 3.91741 7.64851 3.91295 7.61949C3.90848 7.58601 3.9375 7.55699 3.97991 7.54806C4.02232 7.5436 4.0625 7.56145 4.06696 7.59047C4.07366 7.61949 4.04464 7.64851 4 7.65744ZM3.78795 7.63735C3.78795 7.66636 3.75446 7.69092 3.70982 7.69092C3.66071 7.69538 3.62723 7.67083 3.62723 7.63735C3.62723 7.60833 3.66071 7.58378 3.70536 7.58378C3.74777 7.57931 3.78795 7.60386 3.78795 7.63735ZM3.48214 7.61279C3.47321 7.64181 3.42857 7.6552 3.39062 7.64181C3.34821 7.63288 3.3192 7.5994 3.32813 7.57038C3.33705 7.54136 3.3817 7.52797 3.41964 7.5369C3.46429 7.55029 3.4933 7.58378 3.48214 7.61279ZM3.20759 7.49226C3.1875 7.51681 3.14509 7.51235 3.11161 7.47886C3.07812 7.44985 3.0692 7.40744 3.09152 7.38735C3.11161 7.36279 3.15402 7.36726 3.1875 7.40074C3.21652 7.42976 3.22768 7.4744 3.20759 7.49226ZM3.00446 7.28913C2.98438 7.30253 2.94643 7.28913 2.92188 7.25565C2.89732 7.22217 2.89732 7.18422 2.92188 7.1686C2.94643 7.14851 2.98438 7.16413 3.00446 7.19761C3.02902 7.2311 3.02902 7.27128 3.00446 7.28913ZM2.85938 7.07261C2.83929 7.0927 2.8058 7.08154 2.78125 7.05922C2.7567 7.0302 2.75223 6.99672 2.77232 6.9811C2.79241 6.96101 2.82589 6.97217 2.85045 6.99449C2.875 7.02351 2.87946 7.05699 2.85938 7.07261ZM2.70982 6.90744C2.70089 6.92753 2.67188 6.93199 2.64732 6.91636C2.6183 6.90297 2.60491 6.87842 2.61384 6.85833C2.62277 6.84494 2.64732 6.83824 2.67634 6.8494C2.70536 6.86503 2.71875 6.88958 2.70982 6.90744Z" fill="#B4B4B4"/>
</svg>
