<svg width="10" height="11" viewBox="0 0 10 11" fill="none" xmlns="http://www.w3.org/2000/svg">
<path d="M1.04018 9.02797V9.52797H1.54018H3.02232H3.02455H3.45313H3.52455H3.95313H5.43527H5.93527V9.02797V6.66636C5.93527 6.36421 5.96869 6.17046 6.02872 6.0617C6.05224 6.01907 6.07581 5.99735 6.10298 5.98231C6.13305 5.96567 6.19777 5.94092 6.32589 5.94092C6.4355 5.94092 6.47268 5.96556 6.47975 5.9705C6.488 5.97628 6.50801 5.99289 6.53051 6.04984C6.58681 6.19238 6.59598 6.40801 6.59598 6.70654V9.02797V9.52797H7.09598H8.57812H9.07812V9.02797V6.4119C9.07812 5.75773 9.01267 5.06273 8.67404 4.52577C8.30217 3.9361 7.67262 3.63735 6.79911 3.63735C6.45076 3.63735 6.14081 3.71061 5.875 3.83066V3.75565H5.375H3.95313H3.52455H3.45313H3.19046C3.46695 3.50694 3.64062 3.14626 3.64062 2.74449C3.64062 1.99513 3.03061 1.38511 2.28125 1.38511C1.52882 1.38511 0.921875 1.99598 0.921875 2.74449C0.921875 3.14519 1.09581 3.50644 1.37289 3.75565H1.04018V4.25565V9.02797ZM0.712054 0.956543H9.28571C9.39839 0.956543 9.5 1.05229 9.5 1.17753V9.73556C9.5 9.8608 9.39839 9.95654 9.28571 9.95654H0.712054C0.601401 9.95654 0.5 9.86284 0.5 9.73556V1.17753C0.5 1.05024 0.601402 0.956543 0.712054 0.956543Z" fill="#B4B4B4" stroke="#B4B4B4"/>
</svg>
