<svg width="10" height="11" viewBox="0 0 10 11" fill="none" xmlns="http://www.w3.org/2000/svg">
<path d="M8.92857 0.456543H1.07143C0.479911 0.456543 0 0.936454 0 1.52797V9.38511C0 9.97663 0.479911 10.4565 1.07143 10.4565H8.92857C9.52009 10.4565 10 9.97663 10 9.38511V1.52797C10 0.936454 9.52009 0.456543 8.92857 0.456543ZM7.83705 4.00119C7.84152 4.06369 7.84152 4.12842 7.84152 4.19092C7.84152 6.12619 6.3683 8.3561 3.67634 8.3561C2.84598 8.3561 2.07589 8.11503 1.42857 7.69985C1.54688 7.71324 1.66071 7.7177 1.78125 7.7177C2.46652 7.7177 3.09598 7.48556 3.59821 7.0927C2.95536 7.07931 2.41518 6.65744 2.22991 6.07708C2.45536 6.11056 2.65848 6.11056 2.89062 6.05029C2.22098 5.91413 1.71875 5.32485 1.71875 4.61279V4.59494C1.91295 4.70431 2.14062 4.77128 2.37946 4.7802C2.17867 4.64664 2.01406 4.46544 1.90033 4.25278C1.7866 4.04012 1.72728 3.80261 1.72768 3.56145C1.72768 3.28913 1.79911 3.03913 1.92634 2.82261C2.64732 3.71101 3.72991 4.29136 4.9442 4.35386C4.73661 3.36056 5.47991 2.55476 6.37277 2.55476C6.79464 2.55476 7.17411 2.7311 7.44196 3.01681C7.77232 2.95431 8.08929 2.83154 8.37054 2.66413C8.26116 3.00342 8.03125 3.28913 7.72768 3.46994C8.02232 3.43869 8.30804 3.3561 8.57143 3.24226C8.37277 3.53467 8.12277 3.7936 7.83705 4.00119Z" fill="#B4B4B4"/>
</svg>
